<svg width="132" height="45" viewBox="0 0 132 45" fill="none" xmlns="http://www.w3.org/2000/svg">
<path d="M17.9967 15.0286H17.3314L16.8657 13.4651C16.8436 13.3764 16.8103 13.2656 16.7659 13.1325C16.0785 10.9813 14.9363 9.90577 13.3396 9.90577H8.01718V18.2221H14.8698V19.1868H8.01718V28.1351H13.3396C13.7166 28.1351 14.0715 28.0797 14.4041 27.9688C15.4908 27.5918 16.3113 26.4608 16.8657 24.5757L17.3314 23.0123H17.9967L17.8304 29H2.49516V28.1351H5.15638V9.90577H2.49516V9.04087H17.8304L17.9967 15.0286ZM36.7916 28.1684C36.9247 28.1684 37.0355 28.1795 37.1242 28.2016C37.4569 28.246 37.6232 28.5121 37.6232 29H32.9328L32.7 25.6069C32.456 26.2279 32.1345 26.7934 31.7353 27.3035C30.6708 28.6563 29.3069 29.3327 27.6437 29.3327C24.4946 29.3105 22.9089 27.4033 22.8867 23.611V15.6939H20.3253V14.8623H25.3816V24.11C25.3816 24.4648 25.4038 24.7975 25.4482 25.108C25.7365 26.9708 26.7899 27.9022 28.6084 27.9022C29.2737 27.9022 29.9168 27.6916 30.5377 27.2702C31.9349 26.3388 32.6334 24.8751 32.6334 22.8792V15.6939H29.9057V14.8623H35.1283V28.1684H36.7916ZM44.3761 34.4888H46.7046C46.8377 34.4888 46.9486 34.4998 47.0373 34.522C47.3699 34.5664 47.5363 34.8325 47.5363 35.3204H39.3863V34.4888C40.1403 34.4888 40.6836 34.4333 41.0163 34.3224C41.5929 34.1228 41.8812 33.513 41.8812 32.4928V15.6939H39.3863V14.8623H44.1765L44.3428 18.4882C44.5202 18.0003 44.742 17.5346 45.0081 17.0911C46.0726 15.3834 47.6804 14.5296 49.8316 14.5296C51.2287 14.5296 52.4152 14.9732 53.3909 15.8602C54.7881 17.1687 55.4866 19.087 55.4866 21.6151C55.4866 23.8328 54.8435 25.6624 53.5573 27.1039C52.2267 28.5897 50.5745 29.3327 48.6007 29.3327C47.004 29.2439 45.5958 28.6673 44.3761 27.6029V34.4888ZM48.7671 15.8602C47.9687 15.8602 47.2369 16.1042 46.5716 16.5921C45.0857 17.7009 44.3428 19.6968 44.3428 22.5798C44.3428 23.8217 44.5091 24.8973 44.8418 25.8065C45.4849 27.6029 46.6603 28.501 48.3679 28.501C48.9667 28.501 49.5211 28.379 50.0311 28.1351C51.7831 27.2702 52.6591 25.2078 52.6591 21.9478C52.6591 21.0385 52.5815 20.218 52.4262 19.4861C51.9162 17.0689 50.6965 15.8602 48.7671 15.8602ZM64.5348 28.1684C64.6678 28.1684 64.7787 28.1795 64.8674 28.2016C65.2001 28.246 65.3664 28.5121 65.3664 29H57.8817V28.1684C58.6358 28.1684 59.1791 28.1129 59.5117 28.002C60.0883 27.8025 60.3766 27.1926 60.3766 26.1725V8.20924H57.8817V7.37761H62.8715V18.0557C63.1155 17.4126 63.4703 16.836 63.936 16.326C65.0448 15.1284 66.4198 14.5296 68.0609 14.5296C68.7706 14.5296 69.4359 14.6849 70.0568 14.9953C71.6535 15.8602 72.4519 17.5013 72.4519 19.9186V28.1684H74.1152C74.2482 28.1684 74.3591 28.1795 74.4478 28.2016C74.7805 28.246 74.9468 28.5121 74.9468 29H67.6284V28.1684C68.3825 28.1684 68.9147 28.1129 69.2252 28.002C69.7131 27.8025 69.957 27.1926 69.957 26.1725V19.9186C69.957 19.1868 69.835 18.5215 69.5911 17.9227C69.0589 16.6586 68.1163 16.0266 66.7636 16.0266C66.1426 16.0266 65.5438 16.2151 64.9672 16.5921C63.5701 17.5013 62.8715 18.965 62.8715 20.9831V28.1684H64.5348ZM79.9698 21.9145C79.9698 22.8681 80.0475 23.733 80.2027 24.5092C80.7793 27.1704 82.1875 28.501 84.4274 28.501C84.8487 28.501 85.259 28.4456 85.6582 28.3347C87.6985 27.6916 88.7186 25.5072 88.7186 21.7814C88.7186 21.1383 88.6853 20.5506 88.6188 20.0184C88.2196 16.9136 86.7892 15.3613 84.3276 15.3613C83.7953 15.3613 83.2853 15.45 82.7974 15.6274C80.9124 16.3814 79.9698 18.4771 79.9698 21.9145ZM84.4274 14.5296C85.8911 14.5296 87.2327 14.9177 88.4525 15.6939C90.5149 17.0467 91.5461 19.1202 91.5461 21.9145C91.5461 23.977 90.903 25.6957 89.6168 27.0706C88.2196 28.5786 86.4566 29.3327 84.3276 29.3327C82.8196 29.3327 81.4446 28.9113 80.2027 28.0686C78.1624 26.6714 77.1423 24.5757 77.1423 21.7814C77.1423 19.7634 77.7965 18.0779 79.1049 16.7251C80.5243 15.2615 82.2984 14.5296 84.4274 14.5296ZM101.326 28.1684C101.459 28.1684 101.57 28.1795 101.659 28.2016C101.991 28.246 102.158 28.5121 102.158 29H93.9412V28.1684C94.6952 28.1684 95.2386 28.1129 95.5712 28.002C96.1478 27.8025 96.4361 27.1926 96.4361 26.1725V15.6939H93.9412V14.8623H98.7647L98.8978 18.1555C99.186 17.4902 99.5741 16.8915 100.062 16.3592C101.104 15.2282 102.291 14.6627 103.621 14.6627C103.821 14.6627 104.032 14.6849 104.253 14.7292C105.274 14.951 105.784 15.5609 105.784 16.5588C105.784 16.6919 105.761 16.8249 105.717 16.958C105.54 17.6011 105.118 17.9227 104.453 17.9227C104.32 17.9227 104.187 17.9005 104.054 17.8562C103.743 17.7674 103.411 17.4126 103.056 16.7917C102.745 16.2372 102.402 15.96 102.025 15.96C101.692 15.9822 101.282 16.2262 100.794 16.6919C99.552 17.9116 98.931 19.5305 98.931 21.5486V28.1684H101.326ZM113.767 28.1684C113.878 28.1684 113.989 28.1795 114.1 28.2016C114.433 28.246 114.599 28.5121 114.599 29H106.948V28.1684C107.702 28.1684 108.245 28.124 108.578 28.0353C109.265 27.8135 109.609 27.1926 109.609 26.1725V15.6939H106.948V14.8623H112.104V28.1684H113.767ZM112.503 10.0056C112.503 10.2717 112.448 10.5267 112.337 10.7707C112.026 11.4803 111.483 11.8351 110.707 11.8351C110.463 11.8351 110.219 11.7908 109.975 11.7021C109.243 11.3916 108.877 10.8261 108.877 10.0056C108.877 9.73944 108.933 9.48441 109.044 9.24046C109.376 8.5308 109.931 8.17598 110.707 8.17598C110.951 8.17598 111.206 8.23142 111.472 8.3423C112.159 8.67495 112.503 9.22937 112.503 10.0056ZM128.604 29.3327C127.051 29.3105 126.142 28.3125 125.876 26.3388C125.676 26.8045 125.377 27.248 124.978 27.6694C123.869 28.7782 122.505 29.3327 120.886 29.3327C120.221 29.3327 119.589 29.2107 118.99 28.9667C117.504 28.3458 116.761 27.1926 116.761 25.5072C116.761 25.0193 116.828 24.5646 116.961 24.1433C117.715 21.97 120.698 20.8833 125.909 20.8833V18.7876C125.843 16.6364 124.767 15.4943 122.682 15.3613C121.795 15.3613 121.141 15.6385 120.72 16.1929C120.609 16.3481 120.398 16.836 120.088 17.6566C119.844 18.2997 119.467 18.6213 118.957 18.6213C118.846 18.6213 118.735 18.6102 118.624 18.588C117.981 18.4771 117.659 18.0779 117.659 17.3904C117.659 17.0134 117.792 16.6364 118.059 16.2594C118.901 15.1062 120.564 14.5296 123.048 14.5296C123.248 14.5296 123.447 14.5296 123.647 14.5296C126.818 14.707 128.404 16.3814 128.404 19.5527V26.5716C128.426 27.6805 128.726 28.2571 129.302 28.3014C130.012 28.2793 130.444 27.4587 130.599 25.8398L131.464 25.8731C131.464 25.984 131.453 26.1059 131.431 26.239C131.254 28.3014 130.311 29.3327 128.604 29.3327ZM121.984 28.002C122.472 28.002 122.971 27.8912 123.481 27.6694C124.767 27.0484 125.576 25.9729 125.909 24.4427V21.7814C124.179 21.8036 122.86 21.9145 121.951 22.1141C120.243 22.5133 119.389 23.4558 119.389 24.9416C119.389 25.3186 119.422 25.6624 119.489 25.9729C119.799 27.3257 120.631 28.002 121.984 28.002Z" fill="#3C4242"/>
<path d="M1 33.626H23.4033" stroke="#333333" stroke-width="0.420324" stroke-miterlimit="10" stroke-linecap="round" stroke-linejoin="round"/>
<path d="M32.9858 33.626H92.0363" stroke="#3C4242" stroke-width="0.420324" stroke-miterlimit="10" stroke-linecap="round" stroke-linejoin="round"/>
<path d="M40.9502 41.2617C40.7866 41.2617 40.5977 41.1972 40.3818 41.0689C40.1667 40.9398 39.9378 40.7693 39.6967 40.5565C39.4555 40.3438 39.2181 40.1126 38.9838 39.8621C38.7503 39.6125 38.5345 39.3636 38.3378 39.1155C38.1412 38.8682 37.976 38.6477 37.8424 38.4549L36.7624 40.7862C36.7101 40.8999 36.6287 40.9805 36.5173 41.0274C36.406 41.0743 36.2854 41.1027 36.1556 41.1127C36.0257 41.1227 35.8975 41.1273 35.7715 41.1273C35.8675 40.989 35.9666 40.83 36.0664 40.6518C36.1671 40.4736 36.2854 40.2585 36.4229 40.0058C36.5604 39.7531 36.7217 39.4466 36.9076 39.0848C37.0934 38.7238 37.3139 38.2913 37.5705 37.789C37.8262 37.2866 38.1289 36.6967 38.4784 36.0184C38.5007 35.9785 38.5306 35.9232 38.5675 35.8517C38.6044 35.7803 38.6236 35.7142 38.6236 35.6551C38.6236 35.6005 38.6051 35.5575 38.5675 35.5253C38.5306 35.493 38.46 35.4769 38.3563 35.4769C38.178 35.4769 38.0052 35.5253 37.8385 35.6213C37.6718 35.7173 37.5228 35.8402 37.393 35.9892C37.2632 36.1375 37.161 36.2911 37.0865 36.4493C37.012 36.6076 36.9752 36.7489 36.9752 36.8726C36.9752 36.967 36.9936 37.0508 37.0305 37.1253C36.7854 37.1253 36.6126 37.0846 36.5127 37.0032C36.4121 36.9217 36.3622 36.8211 36.3622 36.702C36.3622 36.5338 36.4359 36.3656 36.5849 36.1974C36.7332 36.0292 36.9245 35.874 37.1587 35.7334C37.393 35.5921 37.6381 35.4799 37.8938 35.3954C38.1496 35.3117 38.3816 35.2695 38.5898 35.2695C38.7903 35.2695 38.9254 35.3063 38.9961 35.3809C39.0668 35.4554 39.1021 35.5368 39.1021 35.6259C39.1021 35.6804 39.0929 35.735 39.0745 35.7895C39.056 35.844 39.0353 35.8963 39.013 35.9454L38.0774 37.9649C38.1811 37.8658 38.3171 37.7744 38.4838 37.6899C38.6505 37.6061 38.8348 37.5094 39.0353 37.4003C39.3694 37.2221 39.7274 37.0139 40.1099 36.7766C40.4924 36.5392 40.8581 36.2888 41.2068 36.0268C41.5555 35.7641 41.8451 35.5122 42.0756 35.2695C42.1124 35.2994 42.1386 35.3509 42.1539 35.4254C42.1685 35.4999 42.1762 35.5568 42.1762 35.5959C42.1762 35.7496 42.0817 35.9178 41.892 36.1006C41.7023 36.2834 41.4557 36.4731 41.1515 36.6682C40.8473 36.8641 40.5132 37.0569 40.1491 37.2474C39.785 37.4379 39.427 37.6177 39.0745 37.7859C38.7219 37.9541 38.4039 38.1 38.122 38.2237C38.3447 38.4764 38.5621 38.7161 38.7734 38.9442C38.9846 39.1716 39.215 39.3944 39.4639 39.6125C39.7128 39.8307 40.0039 40.0534 40.338 40.2808C40.6722 40.5081 41.077 40.7532 41.5517 41.0159C41.4995 41.0804 41.418 41.1372 41.3067 41.1864C41.1953 41.2371 41.0762 41.2617 40.9502 41.2617Z" fill="#3C4242"/>
<path d="M46.9089 40.9796C46.4557 40.9796 46.12 40.8882 45.9011 40.7046C45.6822 40.5218 45.5723 40.3013 45.5723 40.044C45.2528 40.3259 44.8856 40.5464 44.4701 40.7046C44.0545 40.8628 43.6343 40.9419 43.2119 40.9419C42.7587 40.9419 42.4191 40.859 42.1925 40.6931C41.9659 40.5272 41.853 40.3228 41.853 40.0809C41.853 39.8581 41.9368 39.6231 42.1034 39.3757C42.2709 39.1284 42.4937 38.8956 42.7717 38.6775C43.0498 38.4601 43.3563 38.2827 43.6904 38.1467C44.0245 38.0107 44.3548 37.9424 44.6821 37.9424C44.8526 37.9424 45.0108 37.9723 45.1552 38.0315C45.3004 38.0906 45.3726 38.212 45.3726 38.3956C45.3726 38.5838 45.2889 38.7604 45.1222 38.9264C44.9555 39.0923 44.7358 39.2398 44.4655 39.368C44.1943 39.4971 43.897 39.6016 43.5744 39.6837C43.2518 39.7659 42.93 39.8159 42.6112 39.8358C42.5966 39.8858 42.5851 39.9326 42.5774 39.9772C42.5697 40.0217 42.5659 40.064 42.5659 40.1031C42.5659 40.2022 42.592 40.2998 42.6442 40.3966C42.6957 40.4934 42.7848 40.5725 42.9115 40.6339C43.0375 40.6961 43.2157 40.7269 43.4461 40.7269C43.8394 40.7269 44.2296 40.6339 44.616 40.4488C45.0016 40.2629 45.3396 40.034 45.6292 39.7621C45.696 39.5593 45.8151 39.3565 45.9856 39.153C46.1561 38.9502 46.3627 38.7658 46.6039 38.5999C46.8451 38.434 47.1071 38.3003 47.389 38.1989C47.6709 38.0975 47.9574 38.0468 48.247 38.0468C48.4175 38.0468 48.5757 38.0768 48.7202 38.136C48.8646 38.1951 48.9375 38.3165 48.9375 38.5C48.9375 38.7528 48.8093 38.974 48.5535 39.1645C48.2977 39.355 47.9689 39.5071 47.5679 39.6215C47.167 39.7352 46.7553 39.8074 46.332 39.8366C46.3174 39.8865 46.3059 39.9334 46.2982 39.9779C46.2905 40.0225 46.2867 40.0647 46.2867 40.1039C46.2867 40.203 46.3105 40.3044 46.3589 40.4081C46.4073 40.5118 46.4926 40.5971 46.6147 40.6639C46.7376 40.7307 46.9135 40.7637 47.1439 40.7637C47.4635 40.7637 47.7823 40.7008 48.1018 40.5748C48.4213 40.4488 48.7178 40.2829 48.9928 40.077C49.2678 39.8719 49.4975 39.6499 49.6834 39.4126L49.817 39.4794C49.6166 39.7767 49.3585 40.0379 49.0428 40.2629C48.7271 40.488 48.386 40.6639 48.0181 40.7899C47.6494 40.9166 47.2799 40.9796 46.9089 40.9796ZM42.6657 39.6945C42.8662 39.6499 43.0928 39.5847 43.3447 39.4979C43.5975 39.4111 43.8402 39.3089 44.0745 39.1898C44.3088 39.0708 44.5016 38.9402 44.6536 38.7965C44.8057 38.6529 44.8818 38.5024 44.8818 38.3434C44.8818 38.2888 44.8672 38.2466 44.8372 38.2174C44.8073 38.1874 44.7443 38.1728 44.6483 38.1728C44.4701 38.1728 44.2803 38.2189 44.0799 38.3103C43.8794 38.4017 43.6866 38.5216 43.5007 38.6706C43.3148 38.8188 43.1481 38.9824 42.9991 39.1606C42.8508 39.3381 42.7395 39.5163 42.6657 39.6945ZM46.3858 39.6945C46.5863 39.6499 46.8052 39.5908 47.0433 39.5163C47.2807 39.4418 47.5073 39.3542 47.7231 39.2528C47.9382 39.1514 48.1164 39.0354 48.2577 38.9041C48.3983 38.7727 48.469 38.6283 48.469 38.4701C48.469 38.4156 48.4505 38.3695 48.4129 38.3326C48.376 38.2957 48.3092 38.2773 48.2124 38.2773C47.9751 38.2773 47.7354 38.3464 47.4942 38.4855C47.253 38.6237 47.0341 38.8012 46.8367 39.0162C46.64 39.2305 46.4895 39.4571 46.3858 39.6945Z" fill="#3C4242"/>
<path d="M48.7475 42.6948C48.6884 42.6948 48.6308 42.6741 48.5747 42.6318C48.5186 42.5896 48.4764 42.545 48.4464 42.4982C48.4164 42.4513 48.4019 42.4229 48.4019 42.4129C48.5056 42.1702 48.6077 41.9536 48.7083 41.7631C48.809 41.5726 48.9088 41.3767 49.0094 41.1762C49.1093 40.9757 49.2084 40.7407 49.3044 40.4711C49.4012 40.2014 49.5011 39.8658 49.6055 39.4648C49.7092 39.0638 49.8137 38.5661 49.9174 37.9723C49.9251 37.9278 49.9397 37.8955 49.9619 37.8755C49.9842 37.8556 50.0395 37.8456 50.1286 37.8456C50.3214 37.8456 50.4589 37.8817 50.5411 37.9531C50.6225 38.0246 50.6632 38.1029 50.6632 38.1866C50.6632 38.2558 50.641 38.3794 50.5964 38.5576C50.5519 38.7359 50.4889 38.9463 50.4075 39.189C50.5334 39.0254 50.6917 38.8595 50.8806 38.6913C51.0696 38.5231 51.287 38.3817 51.532 38.2681C51.777 38.1544 52.0444 38.0975 52.3339 38.0975C52.6604 38.0975 52.93 38.1759 53.1412 38.331C53.3525 38.487 53.4585 38.6913 53.4585 38.944C53.4585 39.1368 53.3932 39.3411 53.2634 39.5562C53.1336 39.7713 52.9515 39.9749 52.718 40.1653C52.4845 40.3558 52.2072 40.511 51.8884 40.6293C51.5689 40.7484 51.2163 40.8075 50.8307 40.8075C50.6371 40.8075 50.482 40.7929 50.3629 40.763C50.2438 40.733 50.1847 40.7038 50.1847 40.6739C50.1847 40.6539 50.2123 40.6431 50.2684 40.6401C50.3245 40.6378 50.389 40.6362 50.4635 40.6362C50.7608 40.6362 51.0442 40.5878 51.3154 40.491C51.5865 40.3943 51.8293 40.2667 52.0451 40.1085C52.2602 39.9503 52.4292 39.7744 52.5521 39.5816C52.6742 39.3888 52.7357 39.1983 52.7357 39.0101C52.7357 38.8518 52.6857 38.7166 52.5851 38.6053C52.4853 38.4939 52.3232 38.4386 52.1004 38.4386C51.9076 38.4386 51.7164 38.4793 51.5266 38.5607C51.3369 38.6421 51.1587 38.7466 50.992 38.8726C50.8245 38.9986 50.6763 39.1299 50.5465 39.2659C50.4167 39.4018 50.3183 39.5247 50.2515 39.633C50.1179 40.004 49.9842 40.362 49.8506 40.7061C49.7169 41.0502 49.5886 41.3621 49.4665 41.6417C49.3436 41.9213 49.233 42.1502 49.1324 42.3284C49.0325 42.5066 48.9488 42.6157 48.8819 42.6549C48.8435 42.6825 48.799 42.6948 48.7475 42.6948Z" fill="#3C4242"/>
<path d="M57.5018 40.8083C57.2122 40.8083 56.9963 40.7476 56.8558 40.6263C56.7144 40.5049 56.6445 40.3574 56.6445 40.1846C56.6445 40.0709 56.676 39.9273 56.739 39.7537C56.802 39.5808 56.8857 39.3988 56.9894 39.2083C57.0931 39.0178 57.2137 38.838 57.3512 38.6698C57.4887 38.5016 57.6354 38.3641 57.7914 38.2573C57.9473 38.1513 58.0994 38.0976 58.2484 38.0976C58.3152 38.0976 58.3728 38.1114 58.4212 38.1383C58.4696 38.1652 58.4934 38.2066 58.4934 38.2604C58.4934 38.3196 58.4358 38.4163 58.3206 38.55C58.2054 38.6836 58.0702 38.8373 57.9143 39.0101C57.7583 39.1837 57.6231 39.365 57.5079 39.5555C57.3927 39.746 57.3351 39.928 57.3351 40.1016C57.3351 40.2798 57.3796 40.3989 57.4687 40.458C57.5578 40.5172 57.6953 40.5471 57.8812 40.5471C58.1339 40.5471 58.4028 40.4634 58.6885 40.2944C58.9743 40.1262 59.2769 39.832 59.5965 39.4111L59.6963 39.4856C59.4813 39.9111 59.1709 40.2383 58.7661 40.4657C58.3605 40.6946 57.9396 40.8083 57.5018 40.8083ZM58.8376 37.4078C58.7185 37.4078 58.6133 37.3878 58.5203 37.3486C58.4274 37.3087 58.3813 37.2472 58.3813 37.1627C58.3813 37.059 58.4719 36.9684 58.654 36.8916C58.836 36.8148 59.0158 36.7764 59.194 36.7764C59.3053 36.7764 59.3945 36.794 59.4613 36.8286C59.5281 36.8632 59.5611 36.9231 59.5611 37.0068C59.5611 37.1005 59.4851 37.1912 59.333 37.278C59.1817 37.3648 59.0165 37.4078 58.8376 37.4078Z" fill="#3C4242"/>
<path d="M60.3298 40.9573C60.0102 40.9573 59.7652 40.8951 59.5947 40.7714C59.4241 40.6477 59.3389 40.4649 59.3389 40.2222C59.3389 40.0048 59.4003 39.7359 59.5225 39.4164C59.6446 39.0969 59.799 38.7696 59.9849 38.4324C59.9104 38.4224 59.8405 38.414 59.7736 38.4063C59.7068 38.3986 59.6438 38.3879 59.5847 38.3733V38.2396C59.6438 38.2442 59.7145 38.2496 59.7959 38.2542C59.8773 38.2588 59.9703 38.2642 60.074 38.2688C60.2299 38.0015 60.3974 37.7426 60.5748 37.493C60.753 37.2433 60.9297 37.0206 61.104 36.8247C61.2784 36.6296 61.4459 36.4729 61.6056 36.3569C61.7654 36.2409 61.9006 36.1826 62.012 36.1826C62.0711 36.1826 62.1249 36.1964 62.1733 36.2233C62.2217 36.2501 62.2455 36.2916 62.2455 36.3454C62.2455 36.4299 62.1679 36.5666 62.012 36.7579C61.856 36.9484 61.6632 37.175 61.4328 37.4369C61.2024 37.6996 60.9796 37.9838 60.7645 38.2911C60.8314 38.2911 60.8997 38.2911 60.9704 38.2911C61.0411 38.2911 61.1094 38.2911 61.1762 38.2911C61.4213 38.2911 61.6794 38.2888 61.9505 38.2834C62.2217 38.2788 62.4944 38.2657 62.7694 38.2465V38.3802C62.3607 38.4101 61.9951 38.4324 61.6725 38.447C61.3498 38.4616 61.0618 38.4693 60.8091 38.4693C60.7791 38.4693 60.7515 38.4693 60.7254 38.4693C60.6992 38.4693 60.6716 38.4693 60.6416 38.4693C60.4711 38.732 60.3259 39.0016 60.2076 39.2789C60.0886 39.5562 60.0294 39.8258 60.0294 40.0885C60.0294 40.3013 60.0778 40.4534 60.1738 40.5448C60.2699 40.6362 60.4296 40.6823 60.6531 40.6823C61.0395 40.6823 61.4182 40.5686 61.7892 40.3405C62.1602 40.1131 62.4867 39.8035 62.7694 39.4126L62.9138 39.4871C62.7356 39.7644 62.5105 40.014 62.2401 40.2368C61.969 40.4595 61.6702 40.6354 61.3437 40.7637C61.0165 40.8928 60.6793 40.9573 60.3298 40.9573Z" fill="#3C4242"/>
<path d="M66.6454 41.031C66.289 41.031 65.9917 40.9519 65.7544 40.7937C65.517 40.6354 65.3979 40.3981 65.3979 40.0808C65.3979 39.8335 65.4702 39.5923 65.6153 39.3565C65.7597 39.1214 65.951 38.9102 66.1891 38.722C66.4265 38.5338 66.69 38.384 66.9795 38.2726C67.2691 38.1613 67.5549 38.106 67.8375 38.106C68.1417 38.106 68.3499 38.1651 68.4613 38.2842C68.5727 38.4032 68.628 38.5269 68.628 38.6552C68.628 38.7988 68.578 38.9248 68.4774 39.0339C68.3775 39.1429 68.2416 39.1975 68.0711 39.1975C67.9451 39.1975 67.8375 39.1606 67.7477 39.0861C67.8591 39.0469 67.9558 38.9663 68.0373 38.8449C68.1187 38.7235 68.1602 38.6083 68.1602 38.4992C68.1602 38.4401 68.1433 38.394 68.1102 38.3617C68.0764 38.3295 68.0119 38.3134 67.9151 38.3134C67.7146 38.3134 67.5088 38.3725 67.2968 38.4916C67.0855 38.6106 66.8881 38.7635 66.7069 38.9517C66.5248 39.1399 66.3766 39.338 66.2613 39.5454C66.1461 39.7536 66.0885 39.9487 66.0885 40.1323C66.0885 40.2859 66.1446 40.4265 66.256 40.5555C66.3673 40.6838 66.5824 40.7483 66.902 40.7483C67.1992 40.7483 67.498 40.6938 67.7984 40.5847C68.0987 40.4757 68.3791 40.3197 68.6395 40.1169C68.8991 39.9141 69.1073 39.676 69.2632 39.4041L69.4076 39.4786C69.2371 39.7759 69.0028 40.0417 68.7063 40.2767C68.409 40.5118 68.0826 40.6961 67.7262 40.8298C67.369 40.9642 67.0087 41.031 66.6454 41.031Z" fill="#3C4242"/>
<path d="M69.9755 40.8382C69.656 40.8382 69.4278 40.7653 69.2903 40.6193C69.1528 40.4734 69.0845 40.2913 69.0845 40.0739C69.0845 39.8366 69.1513 39.5539 69.285 39.2275C69.4186 38.901 69.5953 38.5569 69.8142 38.1951C70.0331 37.8341 70.2728 37.4815 70.5324 37.1366C70.792 36.7925 71.0517 36.4798 71.3121 36.1972C71.5717 35.9153 71.8113 35.6894 72.0303 35.5212C72.2492 35.353 72.422 35.2685 72.548 35.2685C72.6294 35.2685 72.6962 35.2992 72.7485 35.3614C72.8007 35.4237 72.8414 35.4974 72.8714 35.5842C72.9006 35.671 72.9159 35.7486 72.9159 35.8177C72.9159 35.9514 72.866 36.1257 72.7654 36.3416C72.6655 36.5567 72.5242 36.7971 72.3421 37.0621C72.1601 37.3271 71.945 37.5944 71.6961 37.864C71.4473 38.1336 71.1761 38.3925 70.8834 38.6398C70.59 38.8872 70.2805 39.1 69.9532 39.2782C69.9087 39.4118 69.8733 39.5416 69.8472 39.6684C69.8211 39.7943 69.8081 39.9149 69.8081 40.0286C69.8081 40.2214 69.8488 40.3651 69.9302 40.4595C70.0116 40.5533 70.1345 40.6009 70.2981 40.6009C70.4986 40.6009 70.6976 40.5417 70.8942 40.4227C71.0908 40.3036 71.2767 40.1538 71.4511 39.9733C71.6255 39.7928 71.776 39.6062 71.902 39.4126L72.0687 39.4717C71.7714 39.8927 71.4488 40.2253 71.0993 40.4703C70.7513 40.7161 70.3765 40.8382 69.9755 40.8382ZM70.0539 39.0262C70.3135 38.8526 70.5662 38.6537 70.8112 38.4286C71.0563 38.2035 71.2844 37.9693 71.4964 37.7273C71.7084 37.4846 71.8958 37.2495 72.0587 37.0221C72.2215 36.7948 72.3483 36.5905 72.4374 36.4099C72.5265 36.2294 72.571 36.0896 72.571 35.9905C72.571 35.9414 72.5618 35.9091 72.5434 35.8938C72.5249 35.8792 72.508 35.8715 72.4935 35.8715C72.4343 35.8715 72.3321 35.9345 72.187 36.0604C72.0426 36.1864 71.8736 36.3562 71.68 36.5689C71.4872 36.7817 71.2906 37.0245 71.0901 37.2964C70.8896 37.5683 70.6983 37.8533 70.5163 38.1505C70.3335 38.447 70.1798 38.7397 70.0539 39.0262Z" fill="#3C4242"/>
<path d="M72.2143 40.9642C71.9839 40.9642 71.7888 40.9135 71.6298 40.8121C71.47 40.7107 71.3901 40.5563 71.3901 40.3481C71.3901 40.1699 71.4493 39.9779 71.5683 39.7728C71.6866 39.5677 71.8503 39.3642 72.0584 39.1637C72.2666 38.9632 72.5024 38.7804 72.7659 38.6145C73.0293 38.4485 73.3074 38.3164 73.6016 38.2173C73.895 38.1183 74.1861 38.0691 74.4757 38.0691C74.7653 38.0691 75.0065 38.1198 75.1993 38.2212C75.3921 38.3226 75.4889 38.4578 75.4889 38.626C75.4889 38.7497 75.439 38.8342 75.3384 38.8787C75.2377 38.9233 75.1064 38.9455 74.9428 38.9455C74.9574 38.9056 74.9704 38.8626 74.9819 38.8157C74.9935 38.7689 74.9988 38.7258 74.9988 38.6859C74.9988 38.5722 74.9581 38.4747 74.8767 38.3925C74.7945 38.3111 74.6539 38.2703 74.4535 38.2703C74.2453 38.2703 74.0341 38.3187 73.8182 38.4148C73.6031 38.5115 73.395 38.6398 73.1945 38.8011C72.994 38.9624 72.8158 39.1368 72.6599 39.325C72.5039 39.5132 72.3818 39.6991 72.2919 39.8819C72.2028 40.0647 72.1583 40.2283 72.1583 40.372C72.1583 40.5648 72.2581 40.6615 72.4594 40.6615C72.6299 40.6615 72.8158 40.6085 73.0163 40.5018C73.2168 40.3958 73.4226 40.259 73.6346 40.0931C73.8459 39.9272 74.0487 39.7551 74.2415 39.5769C74.4343 39.3987 74.6056 39.2351 74.7538 39.0869C74.783 39.0569 74.8022 39.0423 74.8091 39.0423C74.8537 39.0469 74.9113 39.0569 74.9819 39.0723C75.0526 39.0869 75.1141 39.1068 75.1655 39.1314C75.2178 39.156 75.2439 39.1883 75.2439 39.2282C75.2439 39.2728 75.2101 39.3334 75.1432 39.4103C75.0764 39.4871 75.0019 39.5746 74.9205 39.6737C74.8383 39.7728 74.7646 39.8734 74.6977 39.9748C74.6309 40.0762 74.5979 40.1715 74.5979 40.2606C74.5979 40.3351 74.6271 40.4081 74.687 40.4795C74.7461 40.5517 74.8429 40.587 74.9766 40.587C75.177 40.587 75.4405 40.4895 75.767 40.2936C76.0934 40.0985 76.4245 39.8051 76.7586 39.4133L76.87 39.4878C76.7141 39.7551 76.5136 39.9902 76.2686 40.193C76.0235 40.3958 75.7616 40.5548 75.4835 40.6685C75.2055 40.7821 74.932 40.839 74.6647 40.839C74.3897 40.839 74.1877 40.7844 74.0579 40.6754C73.9281 40.5663 73.8628 40.448 73.8628 40.319C73.8628 40.289 73.8666 40.256 73.8743 40.2191C73.8812 40.1822 73.8889 40.1438 73.8966 40.1039C73.577 40.3912 73.2859 40.6062 73.0224 40.7499C72.7582 40.8928 72.4886 40.9642 72.2143 40.9642Z" fill="#3C4242"/>
<path d="M77.7051 40.9941C77.3564 40.9941 77.0799 40.9434 76.8755 40.8421C76.6712 40.7407 76.5268 40.6155 76.4408 40.4672C76.3555 40.319 76.3125 40.1699 76.3125 40.0217C76.3125 39.8734 76.3425 39.759 76.4016 39.6799C76.4615 39.6007 76.5337 39.5416 76.619 39.5017C76.7042 39.4617 76.7857 39.4325 76.864 39.4126C76.9424 39.3926 76.9954 39.3726 77.0253 39.3534C77.2481 39.1898 77.4524 39.0193 77.6383 38.8411C77.8242 38.6629 77.987 38.4747 78.1284 38.2765V38.1874C78.1284 38.0046 78.1745 37.874 78.2674 37.7972C78.3603 37.7204 78.4587 37.6819 78.5624 37.6819C78.6215 37.6819 78.6661 37.6919 78.696 37.7119C78.726 37.7319 78.7406 37.7542 78.7406 37.7787C78.7406 37.8033 78.7298 37.8433 78.7075 37.8978C78.6853 37.9523 78.6737 38.0215 78.6737 38.106C78.6737 38.2696 78.7221 38.4462 78.8182 38.6367C78.9149 38.8272 79.011 39.0277 79.1077 39.2382C79.2038 39.4487 79.2522 39.6676 79.2522 39.8949C79.2522 39.9595 79.2468 40.0225 79.2353 40.0839C79.2245 40.1461 79.2076 40.2037 79.1853 40.2583C79.445 40.2283 79.69 40.1507 79.9204 40.0248C80.1509 39.8988 80.3736 39.6968 80.5887 39.4195L80.6886 39.494C80.5472 39.7659 80.336 39.9725 80.0541 40.1139C79.7722 40.2552 79.4634 40.3428 79.1292 40.3773C79.0102 40.5901 78.8228 40.746 78.567 40.8451C78.312 40.945 78.0239 40.9941 77.7051 40.9941ZM77.7274 40.7345C77.8165 40.7345 77.9356 40.7145 78.0838 40.6754C78.2321 40.6354 78.3473 40.534 78.4295 40.3712C78.1176 40.332 77.8411 40.2498 77.5999 40.1262C77.3587 40.0025 77.1782 39.8788 77.0599 39.7551C76.8963 39.7605 76.8149 39.8465 76.8149 40.0148C76.8149 40.193 76.8947 40.3574 77.0545 40.5087C77.2128 40.6585 77.4378 40.7345 77.7274 40.7345ZM78.4848 40.2514C78.4994 40.2022 78.5109 40.15 78.5178 40.0954C78.5255 40.0409 78.5293 39.9764 78.5293 39.9026C78.5293 39.6699 78.4863 39.4387 78.4011 39.2082C78.3158 38.9778 78.2436 38.7612 78.1837 38.5584C78.0131 38.7466 77.8326 38.9263 77.6437 39.0969C77.4547 39.2674 77.2742 39.4103 77.1037 39.5239C77.2151 39.6822 77.3879 39.8312 77.6214 39.9695C77.8557 40.1085 78.143 40.2022 78.4848 40.2514Z" fill="#3C4242"/>
<path d="M81.5469 40.9941C81.1982 40.9941 80.9217 40.9434 80.7173 40.8421C80.513 40.7407 80.3686 40.6155 80.2826 40.4672C80.1973 40.319 80.1543 40.1699 80.1543 40.0217C80.1543 39.8734 80.1843 39.759 80.2434 39.6799C80.3033 39.6007 80.3755 39.5416 80.4608 39.5017C80.546 39.4617 80.6275 39.4325 80.7058 39.4126C80.7842 39.3926 80.8372 39.3726 80.8671 39.3534C81.0899 39.1898 81.2942 39.0193 81.4801 38.8411C81.666 38.6629 81.8288 38.4747 81.9702 38.2765V38.1874C81.9702 38.0046 82.0163 37.874 82.1092 37.7972C82.2021 37.7204 82.3005 37.6819 82.4042 37.6819C82.4633 37.6819 82.5079 37.6919 82.5378 37.7119C82.5678 37.7319 82.5824 37.7542 82.5824 37.7787C82.5824 37.8033 82.5716 37.8433 82.5493 37.8978C82.5271 37.9523 82.5155 38.0215 82.5155 38.106C82.5155 38.2696 82.5639 38.4462 82.66 38.6367C82.7567 38.8272 82.8528 39.0277 82.9495 39.2382C83.0456 39.4487 83.0939 39.6676 83.0939 39.8949C83.0939 39.9595 83.0886 40.0225 83.077 40.0839C83.0663 40.1461 83.0494 40.2037 83.0271 40.2583C83.2868 40.2283 83.5318 40.1507 83.7622 40.0248C83.9927 39.8988 84.2154 39.6968 84.4305 39.4195L84.5304 39.494C84.389 39.7659 84.1778 39.9725 83.8959 40.1139C83.614 40.2552 83.3052 40.3428 82.971 40.3773C82.852 40.5901 82.6646 40.746 82.4088 40.8451C82.1545 40.945 81.8665 40.9941 81.5469 40.9941ZM81.5692 40.7345C81.6583 40.7345 81.7774 40.7145 81.9256 40.6754C82.0739 40.6354 82.1891 40.534 82.2713 40.3712C81.9594 40.332 81.6829 40.2498 81.4417 40.1262C81.2005 40.0025 81.02 39.8788 80.9017 39.7551C80.7381 39.7605 80.6567 39.8465 80.6567 40.0148C80.6567 40.193 80.7365 40.3574 80.8963 40.5087C81.0553 40.6585 81.2796 40.7345 81.5692 40.7345ZM82.3266 40.2514C82.3412 40.2022 82.3527 40.15 82.3596 40.0954C82.3673 40.0409 82.3711 39.9764 82.3711 39.9026C82.3711 39.6699 82.3281 39.4387 82.2429 39.2082C82.1576 38.9778 82.0854 38.7612 82.0255 38.5584C81.8549 38.7466 81.6744 38.9263 81.4855 39.0969C81.2965 39.2674 81.116 39.4103 80.9455 39.5239C81.0569 39.6822 81.2297 39.8312 81.4632 39.9695C81.6975 40.1085 81.9855 40.2022 82.3266 40.2514Z" fill="#3C4242"/>
<path d="M84.6996 42.6948C84.5137 42.6948 84.3509 42.6618 84.2096 42.595C84.0682 42.5281 83.9976 42.4306 83.9976 42.3015C83.9976 42.1433 84.0575 42.002 84.1758 41.8783C84.2941 41.7546 84.4538 41.6409 84.6551 41.5365C84.8556 41.4328 85.0852 41.3337 85.3456 41.2392C85.6053 41.1455 85.8764 41.051 86.1583 40.9573C86.262 40.7745 86.368 40.5702 86.4756 40.3451C86.5831 40.12 86.6853 39.8712 86.782 39.5992C86.5447 39.8566 86.2904 40.0778 86.0193 40.2637C85.7481 40.4496 85.4601 40.5417 85.1559 40.5417C85.0146 40.5417 84.8755 40.521 84.738 40.4788C84.6005 40.4365 84.4876 40.3712 84.3985 40.2821C84.3094 40.193 84.2649 40.0793 84.2649 39.9403C84.2649 39.802 84.3002 39.6407 84.3709 39.4579C84.4415 39.2751 84.5283 39.0969 84.6328 38.9233C84.7365 38.7505 84.844 38.6068 84.9562 38.4924C85.0683 38.3779 85.1644 38.3218 85.2458 38.3218C85.2757 38.3218 85.3295 38.3295 85.4071 38.3441C85.4854 38.3587 85.5592 38.3802 85.6298 38.4071C85.7005 38.4348 85.7358 38.4632 85.7358 38.4924C85.669 38.5569 85.5945 38.6483 85.5131 38.7674C85.4309 38.8864 85.3518 39.0185 85.2734 39.1645C85.1958 39.3104 85.1306 39.4525 85.0783 39.5916C85.0261 39.7298 85.0007 39.8489 85.0007 39.948C85.0007 40.0371 85.0299 40.1085 85.0898 40.1631C85.149 40.2176 85.2535 40.2445 85.4017 40.2445C85.5423 40.2445 85.7005 40.1992 85.8749 40.107C86.0492 40.0156 86.2236 39.8981 86.3987 39.7544C86.5731 39.6108 86.7344 39.4571 86.8834 39.2943C86.9057 39.2398 86.9257 39.1845 86.9449 39.1276C86.9633 39.0708 86.9802 39.0124 86.9948 38.9532C87.0171 38.8841 87.0709 38.8035 87.1561 38.7121C87.2414 38.6206 87.3773 38.5746 87.5625 38.5746C87.5993 38.5746 87.6362 38.5761 87.6738 38.5784C87.7107 38.5807 87.7514 38.5868 87.796 38.5968C87.796 38.6759 87.7606 38.8234 87.69 39.0385C87.6193 39.2536 87.5187 39.5055 87.3889 39.792C87.2591 40.0793 87.1047 40.3735 86.9265 40.6754C87.2752 40.5863 87.617 40.4388 87.9511 40.2337C88.2853 40.0286 88.5564 39.7544 88.7638 39.4134L88.9082 39.4879C88.7969 39.7252 88.6279 39.9318 88.4013 40.1078C88.1747 40.2837 87.9204 40.4342 87.6385 40.561C87.3566 40.6869 87.0778 40.7922 86.8028 40.8767C86.61 41.1931 86.4003 41.4904 86.1737 41.7677C85.9471 42.045 85.7097 42.2693 85.4608 42.4398C85.2135 42.6096 84.9593 42.6948 84.6996 42.6948ZM84.6436 42.4567C84.7549 42.4567 84.9424 42.3592 85.2058 42.1633C85.4693 41.9674 85.7497 41.6248 86.0469 41.1347C85.7428 41.2438 85.4601 41.3514 85.2005 41.4581C84.9408 41.5641 84.7327 41.6794 84.5767 41.8038C84.4208 41.9275 84.3432 42.0711 84.3432 42.2347C84.3432 42.2747 84.3655 42.3215 84.41 42.3761C84.4546 42.4298 84.5322 42.4567 84.6436 42.4567Z" fill="#3C4242"/>
<path d="M88.998 40.69C88.9012 40.69 88.8183 40.6738 88.7476 40.6416C88.6769 40.6093 88.6416 40.5586 88.6416 40.4895C88.6416 40.4349 88.6746 40.3842 88.7415 40.3374C88.8083 40.2905 88.892 40.2529 88.9919 40.226C89.0917 40.1991 89.1901 40.1853 89.2868 40.1853C89.3759 40.1853 89.4466 40.1976 89.4981 40.2222C89.5495 40.2468 89.5757 40.2944 89.5757 40.3635C89.5757 40.4134 89.548 40.4626 89.4919 40.5118C89.4358 40.5609 89.3636 40.6032 89.2745 40.6377C89.1854 40.6723 89.0948 40.69 88.998 40.69Z" fill="#3C4242"/>
</svg>
